<?xml version="1.0" encoding="UTF-8" standalone="no"?>
<!-- Created with Inkscape (http://www.inkscape.org/) -->

<svg
   width="1000mm"
   height="1000mm"
   viewBox="0 0 1000 1000"
   version="1.1"
   id="svg5"
   xml:space="preserve"
   sodipodi:docname="base-white.svg"
   inkscape:export-filename="base-white.png"
   inkscape:export-xdpi="25.4"
   inkscape:export-ydpi="25.4"
   inkscape:version="1.2.2 (732a01da63, 2022-12-09)"
   xmlns:inkscape="http://www.inkscape.org/namespaces/inkscape"
   xmlns:sodipodi="http://sodipodi.sourceforge.net/DTD/sodipodi-0.dtd"
   xmlns="http://www.w3.org/2000/svg"
   xmlns:svg="http://www.w3.org/2000/svg"><sodipodi:namedview
     id="namedview7"
     pagecolor="#505050"
     bordercolor="#eeeeee"
     borderopacity="1"
     inkscape:showpageshadow="0"
     inkscape:pageopacity="0"
     inkscape:pagecheckerboard="0"
     inkscape:deskcolor="#505050"
     inkscape:document-units="mm"
     showgrid="false"
     showguides="true"
     inkscape:zoom="0.13055262"
     inkscape:cx="1478.3311"
     inkscape:cy="1677.4845"
     inkscape:window-width="1280"
     inkscape:window-height="953"
     inkscape:window-x="1912"
     inkscape:window-y="44"
     inkscape:window-maximized="1"
     inkscape:current-layer="layer1" /><defs
     id="defs2"><rect
       x="238.3154"
       y="249.14792"
       width="2881.4498"
       height="704.11367"
       id="rect1460" /></defs><g
     inkscape:label="Layer 1"
     inkscape:groupmode="layer"
     id="layer1"><rect
       style="fill:#ffffff;fill-opacity:1;stroke-width:0.264583"
       id="rect231"
       width="1048.994"
       height="1060.4584"
       x="-24.497057"
       y="-28.661032"
       inkscape:highlight-color="#4aee3b" /><path
       style="fill:#b3b3b3;stroke:none;stroke-width:3.05411;fill-opacity:0.72538859"
       d="m 410.65059,83.999594 c -39.34862,8.53791 -86.02212,6.58015 -125.88897,17.238466 -77.70743,20.77494 -131.40277,76.32162 -151.54037,155.82591 -8.89314,35.1106 -8.41189,74.4113 -4.19817,115.1505 3.92726,37.9692 17.07494,79.0142 33.47878,118.5024 117.81331,283.6116 470.3363,445.9134 638.41372,314.5001 49.49581,-38.702 78.84571,-102.5875 79.6028,-177.2703 0.27229,-26.8829 2.29198,-61.2074 -2.01104,-88.7487 -1.78116,-11.3859 -16.37685,-24.3909 -25.43444,-19.4383 -12.78011,6.9912 9.87499,34.4885 12.93264,47.7896 8.92528,38.8244 4.16744,80.3734 -3.91568,112.1494 C 827.32,816.35887 687.29457,879.07127 522.44052,820.77787 267.74346,730.71337 64.178549,410.29367 160.6175,219.03177 c 31.25555,-61.98671 87.79299,-101.03665 160.54133,-112.90386 23.48159,-3.83027 49.89841,-4.18332 76.35211,-0.20348 10.5687,1.59002 27.9563,12.67408 34.62559,4.94152 8.27263,-9.5964 -8.91414,-29.593466 -21.48594,-26.866356 M 713.52088,199.69637 c -11.35247,1.9677 -7.67136,19.5336 4.00565,27.9688 100.55979,72.6318 164.11354,195.9119 195.44707,302.1278 64.42819,218.3937 -65.99407,377.0232 -256.31812,375.4232 -215.374,-1.8126 -492.34732,-224.0691 -560.752791,-465.4514 -28.41341,-100.2624 -30.63986,-194.346 6.883681,-267.14658 9.75748,-18.93097 29.37168,-27.00792 39.32421,-43.41194 6.18175,-10.18917 -8.39331,-28.15723 -21.16281,-26.42784 -10.95119,1.48277 -6.89165,17.05758 -9.67807,25.54534 -5.42634,16.52841 -17.141561,29.18114 -24.108821,44.68886 -39.83657,88.66876 -29.68349,210.52756 22.532001,330.07586 120.75363,276.4671 449.49994,470.3149 660.57822,397.8944 151.79612,-52.0777 208.57707,-226.7886 134.75498,-424.3739 -28.32684,-75.818 -73.73893,-151.4134 -132.421,-217.636 -11.81992,-13.3384 -43.43222,-61.9881 -59.0842,-59.2766 M 395.28505,159.58673 c -142.85302,-3.15206 -231.97058,99.92774 -198.68508,257.64794 13.71026,64.9658 51.41269,135.1358 100.07135,193.8459 11.17673,13.4852 29.1026,52.5734 45.04802,52.2394 10.69682,-0.2225 11.29303,-14.0767 1.66868,-23.8039 -8.62904,-8.7228 -19.6227,-13.1578 -28.52876,-22.4733 -53.69168,-56.1655 -91.53187,-129.7403 -106.64252,-194.7854 -45.72072,-196.809 116.99055,-304.69805 307.54016,-224.742 142.62406,59.8462 279.25183,217.5224 293.13383,360.3306 5.21001,53.6062 -2.46481,101.4834 -26.77194,138.7324 -6.40587,9.8151 -23.8093,8.4531 -28.18524,17.9117 -3.95409,8.5425 5.68137,24.4307 17.34906,26.4129 13.08104,2.2224 22.23766,-35.0516 27.39511,-44.536 28.96391,-53.2399 28.82562,-124.858 6.59678,-200.1163 C 753.06693,319.48267 552.95297,163.06588 395.28505,159.58673 m -118.13994,94.58604 c -7.63225,4.5398 -3.33002,26.468 -7.74692,35.2937 -31.77299,63.4895 -21.9643,159.2692 31.98406,246.1883 94.62064,152.4468 278.70708,236.8663 386.06112,173.2227 85.95084,-50.9553 87.3388,-182.0175 14.70537,-303.324 -13.29958,-22.2122 -31.67041,-41.1968 -45.96407,-62.6917 -6.10991,-9.1869 -9.28515,-21.021 -19.43839,-27.4759 -11.5905,-7.3671 -39.77295,-0.8779 -53.20273,-3.1595 l -165.19547,-28.0652 c -34.30559,-5.8282 -69.14822,-9.1237 -104.00969,-17.8469 -11.6839,-2.9235 -27.7592,-17.7528 -37.19328,-12.1415 m 385.79874,172.1615 -18.43571,-79.3582 c 55.64014,45.5391 91.7748,133.9191 97.96127,190.4383 5.02411,45.9124 0.48787,85.9867 -19.29976,118.683 -65.45636,108.1735 -251.41457,72.0774 -372.92282,-66.4053 -74.67867,-85.1112 -130.37032,-248.0199 -62.92479,-300.3497 3.80639,16.385 2.57116,58.8511 10.99229,71.5321 10.71553,16.1358 35.80455,6.5723 48.79703,8.7537 l 119.30784,20.2693 c 11.8696,2.0165 33.79406,1.4507 45.22534,12.5722 14.20354,13.8214 16.3079,49.9228 19.94489,65.5786 l 42.03344,180.9367 -70.36104,-11.9537 c -11.05553,-47.5895 -22.95695,-95.4051 -33.16899,-142.8421 -2.54406,-11.8113 5.49456,-43.3235 -16.83742,-47.1175 -23.21303,-3.9436 1.36684,33.1924 4.5273,45.0261 13.90044,52.0061 24.17573,103.8263 36.19212,155.5519 l 97.89362,16.6313 -49.40772,-212.68 c -3.47108,-14.9416 -3.21083,-57.8264 -16.24953,-67.8352 -11.2896,-8.6649 -30.50372,-4.1606 -42.06493,-6.1019 l -119.30784,-20.2693 c -14.68129,-2.4942 -44.39396,-1.2992 -54.0264,-21.5534 -5.34917,-11.2475 -15.92118,-46.5038 -8.4285,-52.5413 10.21038,-8.2272 46.11828,4.2403 61.52735,6.8581 l 171.31382,29.1047 c 19.65214,3.3387 73.16315,2.9048 91.11297,20.3681 12.11913,11.793 25.49681,67.2155 11.55504,69.2821 -16.48991,2.4438 -33.20635,-17.3501 -47.4392,-16.7642 -12.39042,0.5101 -10.44695,17.4771 3.18112,25.0267 10.52857,5.8317 25.1669,1.7294 35.65887,3.4445 z"
       id="path924" /><text
       xml:space="preserve"
       style="font-size:50.8px;fill:#000000;fill-opacity:0.725389;stroke:none;stroke-width:0.960001;stroke-dasharray:none;stroke-opacity:1"
       x="300.69434"
       y="52.354439"
       id="text2292"><tspan
         sodipodi:role="line"
         id="tspan2290"
         style="font-style:normal;font-variant:normal;font-weight:normal;font-stretch:normal;font-size:50.8px;font-family:'Berlin Sans FB';-inkscape-font-specification:'Berlin Sans FB';fill:#000000;stroke-width:0.96"
         x="300.69434"
         y="52.354439">Auto Spotted ZSET</tspan></text></g></svg>
